# xmcd
#
# Track frame offsets: 
#        150
#        41466
#        52917
#        79955
#        90200
#
# Disc length: 1304 seconds
#
# Revision: 0
# Processed by: cddbd v1.5.1PL0 Copyright (c) Steve Scherf et al.
# Submitted via: ExactAudioCopy v0.95a5
#
DISCID=2c051605
DTITLE=Son House - BBC Radio One, John Peel Show
DYEAR=1970
DGENRE=Blues
TTITLE0=01 - Good Gal
TTITLE1=02 - Monologue
TTITLE2=03 - Death Letter
TTITLE3=04 - Monologue
TTITLE4=05 - Don't you mind people grinning in your face and outro by Jo
TTITLE4=hn Peel
EXTD=
EXTT0=
EXTT1=
EXTT2=
EXTT3=
EXTT4=
PLAYORDER=
